FILE "Road Avenger (1993)(Data East - Rennovation)(US).img" BINARY
  TRACK 01 MODE1/2352
    INDEX 01 00:00:00
  TRACK 02 AUDIO
    PREGAP 00:02:00
    INDEX 01 30:01:51
  TRACK 03 AUDIO
    INDEX 00 30:14:59
    INDEX 01 30:16:59
  TRACK 04 AUDIO
    INDEX 00 30:26:37
    INDEX 01 30:28:37
